<mxfile host="app.diagrams.net" modified="2020-06-02T03:05:57.968Z" agent="5.0 (X11; Linux x86_64) AppleWebKit/537.36 (KHTML, like Gecko) Chrome/80.0.3987.149 Safari/537.36" etag="I2Vpw46P-EBVCWYGy4gR" version="13.1.12" type="github">
  <diagram id="j1-Qjk5repm2_EIc1Shi" name="Page-1">
    <mxGraphModel dx="1185" dy="672" grid="1" gridSize="10" guides="1" tooltips="1" connect="1" arrows="1" fold="1" page="1" pageScale="1" pageWidth="850" pageHeight="1400" math="0" shadow="0">
      <root>
        <mxCell id="0" />
        <mxCell id="1" parent="0" />
        <mxCell id="B7dfgYhSf5KNwueZFovN-3" value="" style="rounded=0;whiteSpace=wrap;html=1;" vertex="1" parent="1">
          <mxGeometry x="245" y="110" width="180" height="60" as="geometry" />
        </mxCell>
        <mxCell id="B7dfgYhSf5KNwueZFovN-4" style="edgeStyle=orthogonalEdgeStyle;rounded=0;orthogonalLoop=1;jettySize=auto;html=1;exitX=0.5;exitY=1;exitDx=0;exitDy=0;" edge="1" parent="1" source="B7dfgYhSf5KNwueZFovN-5" target="B7dfgYhSf5KNwueZFovN-7">
          <mxGeometry relative="1" as="geometry" />
        </mxCell>
        <mxCell id="B7dfgYhSf5KNwueZFovN-5" value="Configuration" style="rounded=0;whiteSpace=wrap;html=1;" vertex="1" parent="1">
          <mxGeometry x="110" y="110" width="90" height="40" as="geometry" />
        </mxCell>
        <mxCell id="B7dfgYhSf5KNwueZFovN-6" style="edgeStyle=orthogonalEdgeStyle;rounded=0;orthogonalLoop=1;jettySize=auto;html=1;entryX=0.5;entryY=0;entryDx=0;entryDy=0;" edge="1" parent="1" source="B7dfgYhSf5KNwueZFovN-7" target="B7dfgYhSf5KNwueZFovN-25">
          <mxGeometry relative="1" as="geometry" />
        </mxCell>
        <mxCell id="B7dfgYhSf5KNwueZFovN-7" value="init_evset" style="rounded=0;whiteSpace=wrap;html=1;" vertex="1" parent="1">
          <mxGeometry x="110" y="190" width="90" height="40" as="geometry" />
        </mxCell>
        <mxCell id="B7dfgYhSf5KNwueZFovN-8" value="pool_sz" style="text;html=1;strokeColor=none;fillColor=none;align=center;verticalAlign=middle;whiteSpace=wrap;rounded=0;" vertex="1" parent="1">
          <mxGeometry x="350" y="114" width="40" height="20" as="geometry" />
        </mxCell>
        <mxCell id="B7dfgYhSf5KNwueZFovN-9" value="" style="rounded=0;whiteSpace=wrap;html=1;" vertex="1" parent="1">
          <mxGeometry x="330" y="140" width="20" height="20" as="geometry" />
        </mxCell>
        <mxCell id="B7dfgYhSf5KNwueZFovN-10" value="" style="rounded=0;whiteSpace=wrap;html=1;" vertex="1" parent="1">
          <mxGeometry x="390" y="140" width="20" height="20" as="geometry" />
        </mxCell>
        <mxCell id="B7dfgYhSf5KNwueZFovN-11" value="" style="endArrow=none;dashed=1;html=1;entryX=0;entryY=0;entryDx=0;entryDy=0;" edge="1" parent="1" target="B7dfgYhSf5KNwueZFovN-10">
          <mxGeometry width="50" height="50" relative="1" as="geometry">
            <mxPoint x="350" y="140" as="sourcePoint" />
            <mxPoint x="400" y="90" as="targetPoint" />
          </mxGeometry>
        </mxCell>
        <mxCell id="B7dfgYhSf5KNwueZFovN-12" value="" style="endArrow=none;dashed=1;html=1;entryX=0;entryY=1;entryDx=0;entryDy=0;" edge="1" parent="1" target="B7dfgYhSf5KNwueZFovN-10">
          <mxGeometry width="50" height="50" relative="1" as="geometry">
            <mxPoint x="350" y="160" as="sourcePoint" />
            <mxPoint x="400" y="110" as="targetPoint" />
          </mxGeometry>
        </mxCell>
        <mxCell id="B7dfgYhSf5KNwueZFovN-13" style="edgeStyle=orthogonalEdgeStyle;rounded=0;orthogonalLoop=1;jettySize=auto;html=1;exitX=1;exitY=0.5;exitDx=0;exitDy=0;entryX=0;entryY=0.5;entryDx=0;entryDy=0;" edge="1" parent="1" source="B7dfgYhSf5KNwueZFovN-14" target="B7dfgYhSf5KNwueZFovN-9">
          <mxGeometry relative="1" as="geometry" />
        </mxCell>
        <mxCell id="B7dfgYhSf5KNwueZFovN-14" value="pool" style="text;html=1;strokeColor=none;fillColor=none;align=center;verticalAlign=middle;whiteSpace=wrap;rounded=0;" vertex="1" parent="1">
          <mxGeometry x="260" y="140" width="40" height="20" as="geometry" />
        </mxCell>
        <mxCell id="B7dfgYhSf5KNwueZFovN-15" value="" style="rounded=0;whiteSpace=wrap;html=1;" vertex="1" parent="1">
          <mxGeometry x="245" y="180" width="180" height="60" as="geometry" />
        </mxCell>
        <mxCell id="B7dfgYhSf5KNwueZFovN-16" value="pool_sz" style="text;html=1;strokeColor=none;fillColor=none;align=center;verticalAlign=middle;whiteSpace=wrap;rounded=0;" vertex="1" parent="1">
          <mxGeometry x="350" y="184" width="40" height="20" as="geometry" />
        </mxCell>
        <mxCell id="B7dfgYhSf5KNwueZFovN-17" value="" style="rounded=0;whiteSpace=wrap;html=1;" vertex="1" parent="1">
          <mxGeometry x="330" y="210" width="20" height="20" as="geometry" />
        </mxCell>
        <mxCell id="B7dfgYhSf5KNwueZFovN-18" value="" style="rounded=0;whiteSpace=wrap;html=1;" vertex="1" parent="1">
          <mxGeometry x="390" y="210" width="20" height="20" as="geometry" />
        </mxCell>
        <mxCell id="B7dfgYhSf5KNwueZFovN-19" value="" style="endArrow=none;dashed=1;html=1;entryX=0;entryY=0;entryDx=0;entryDy=0;" edge="1" parent="1" target="B7dfgYhSf5KNwueZFovN-18">
          <mxGeometry width="50" height="50" relative="1" as="geometry">
            <mxPoint x="350" y="210" as="sourcePoint" />
            <mxPoint x="400" y="160" as="targetPoint" />
          </mxGeometry>
        </mxCell>
        <mxCell id="B7dfgYhSf5KNwueZFovN-20" value="" style="endArrow=none;dashed=1;html=1;entryX=0;entryY=1;entryDx=0;entryDy=0;" edge="1" parent="1" target="B7dfgYhSf5KNwueZFovN-18">
          <mxGeometry width="50" height="50" relative="1" as="geometry">
            <mxPoint x="350" y="230" as="sourcePoint" />
            <mxPoint x="400" y="180" as="targetPoint" />
          </mxGeometry>
        </mxCell>
        <mxCell id="B7dfgYhSf5KNwueZFovN-21" style="edgeStyle=orthogonalEdgeStyle;rounded=0;orthogonalLoop=1;jettySize=auto;html=1;exitX=1;exitY=0.5;exitDx=0;exitDy=0;entryX=0;entryY=0.5;entryDx=0;entryDy=0;" edge="1" parent="1" source="B7dfgYhSf5KNwueZFovN-22" target="B7dfgYhSf5KNwueZFovN-17">
          <mxGeometry relative="1" as="geometry" />
        </mxCell>
        <mxCell id="B7dfgYhSf5KNwueZFovN-22" value="probe" style="text;html=1;strokeColor=none;fillColor=none;align=center;verticalAlign=middle;whiteSpace=wrap;rounded=0;" vertex="1" parent="1">
          <mxGeometry x="260" y="210" width="40" height="20" as="geometry" />
        </mxCell>
        <mxCell id="B7dfgYhSf5KNwueZFovN-23" value="conf.traverse()" style="rounded=0;whiteSpace=wrap;html=1;" vertex="1" parent="1">
          <mxGeometry x="245" y="250" width="180" height="60" as="geometry" />
        </mxCell>
        <mxCell id="B7dfgYhSf5KNwueZFovN-24" value="" style="shape=curlyBracket;whiteSpace=wrap;html=1;rounded=1;" vertex="1" parent="1">
          <mxGeometry x="215" y="110" width="20" height="200" as="geometry" />
        </mxCell>
        <mxCell id="B7dfgYhSf5KNwueZFovN-25" value="find_evset" style="rounded=0;whiteSpace=wrap;html=1;" vertex="1" parent="1">
          <mxGeometry x="110" y="460" width="90" height="40" as="geometry" />
        </mxCell>
        <mxCell id="B7dfgYhSf5KNwueZFovN-26" value="set_victim" style="rounded=0;whiteSpace=wrap;html=1;" vertex="1" parent="1">
          <mxGeometry x="290" y="390" width="90" height="40" as="geometry" />
        </mxCell>
        <mxCell id="B7dfgYhSf5KNwueZFovN-27" value="calibrate threshold" style="rounded=0;whiteSpace=wrap;html=1;" vertex="1" parent="1">
          <mxGeometry x="290" y="440" width="90" height="40" as="geometry" />
        </mxCell>
        <mxCell id="B7dfgYhSf5KNwueZFovN-28" value="initialize_list" style="rounded=0;whiteSpace=wrap;html=1;" vertex="1" parent="1">
          <mxGeometry x="290" y="490" width="90" height="40" as="geometry" />
        </mxCell>
        <mxCell id="B7dfgYhSf5KNwueZFovN-29" value="" style="rounded=0;whiteSpace=wrap;html=1;" vertex="1" parent="1">
          <mxGeometry x="480" y="500" width="20" height="20" as="geometry" />
        </mxCell>
        <mxCell id="B7dfgYhSf5KNwueZFovN-30" value="" style="rounded=0;whiteSpace=wrap;html=1;" vertex="1" parent="1">
          <mxGeometry x="500" y="500" width="20" height="20" as="geometry" />
        </mxCell>
        <mxCell id="B7dfgYhSf5KNwueZFovN-31" value="" style="rounded=0;whiteSpace=wrap;html=1;" vertex="1" parent="1">
          <mxGeometry x="560" y="500" width="20" height="20" as="geometry" />
        </mxCell>
        <mxCell id="B7dfgYhSf5KNwueZFovN-32" value="" style="endArrow=none;dashed=1;html=1;entryX=0;entryY=0;entryDx=0;entryDy=0;" edge="1" parent="1" target="B7dfgYhSf5KNwueZFovN-31">
          <mxGeometry width="50" height="50" relative="1" as="geometry">
            <mxPoint x="520" y="500" as="sourcePoint" />
            <mxPoint x="570" y="450" as="targetPoint" />
          </mxGeometry>
        </mxCell>
        <mxCell id="B7dfgYhSf5KNwueZFovN-33" value="" style="endArrow=none;dashed=1;html=1;exitX=0;exitY=1;exitDx=0;exitDy=0;" edge="1" parent="1" source="B7dfgYhSf5KNwueZFovN-31">
          <mxGeometry width="50" height="50" relative="1" as="geometry">
            <mxPoint x="470" y="570" as="sourcePoint" />
            <mxPoint x="520" y="520" as="targetPoint" />
          </mxGeometry>
        </mxCell>
        <mxCell id="B7dfgYhSf5KNwueZFovN-34" style="edgeStyle=orthogonalEdgeStyle;rounded=0;orthogonalLoop=1;jettySize=auto;html=1;entryX=0;entryY=0.5;entryDx=0;entryDy=0;" edge="1" parent="1" source="B7dfgYhSf5KNwueZFovN-35" target="B7dfgYhSf5KNwueZFovN-29">
          <mxGeometry relative="1" as="geometry" />
        </mxCell>
        <mxCell id="B7dfgYhSf5KNwueZFovN-35" value="ptr" style="text;html=1;strokeColor=none;fillColor=none;align=center;verticalAlign=middle;whiteSpace=wrap;rounded=0;" vertex="1" parent="1">
          <mxGeometry x="410" y="500" width="30" height="20" as="geometry" />
        </mxCell>
        <mxCell id="B7dfgYhSf5KNwueZFovN-36" value="sz/sizeof(Elem) - offset" style="text;html=1;strokeColor=none;fillColor=none;align=center;verticalAlign=middle;whiteSpace=wrap;rounded=0;" vertex="1" parent="1">
          <mxGeometry x="460" y="470" width="160" height="20" as="geometry" />
        </mxCell>
        <mxCell id="B7dfgYhSf5KNwueZFovN-37" value="pick_n_from_list" style="rounded=0;whiteSpace=wrap;html=1;" vertex="1" parent="1">
          <mxGeometry x="290" y="570" width="90" height="40" as="geometry" />
        </mxCell>
        <mxCell id="B7dfgYhSf5KNwueZFovN-38" style="edgeStyle=orthogonalEdgeStyle;rounded=0;orthogonalLoop=1;jettySize=auto;html=1;entryX=0;entryY=0.5;entryDx=0;entryDy=0;" edge="1" parent="1" source="B7dfgYhSf5KNwueZFovN-39" target="B7dfgYhSf5KNwueZFovN-41">
          <mxGeometry relative="1" as="geometry" />
        </mxCell>
        <mxCell id="B7dfgYhSf5KNwueZFovN-39" value="ptr" style="text;html=1;strokeColor=none;fillColor=none;align=center;verticalAlign=middle;whiteSpace=wrap;rounded=0;" vertex="1" parent="1">
          <mxGeometry x="410" y="580" width="30" height="20" as="geometry" />
        </mxCell>
        <mxCell id="B7dfgYhSf5KNwueZFovN-40" style="edgeStyle=orthogonalEdgeStyle;rounded=0;orthogonalLoop=1;jettySize=auto;html=1;entryX=0;entryY=0.5;entryDx=0;entryDy=0;" edge="1" parent="1" source="B7dfgYhSf5KNwueZFovN-41" target="B7dfgYhSf5KNwueZFovN-44">
          <mxGeometry relative="1" as="geometry" />
        </mxCell>
        <mxCell id="B7dfgYhSf5KNwueZFovN-41" value="" style="rounded=0;whiteSpace=wrap;html=1;" vertex="1" parent="1">
          <mxGeometry x="480" y="580" width="20" height="20" as="geometry" />
        </mxCell>
        <mxCell id="B7dfgYhSf5KNwueZFovN-42" style="edgeStyle=orthogonalEdgeStyle;rounded=0;orthogonalLoop=1;jettySize=auto;html=1;entryX=0;entryY=0.5;entryDx=0;entryDy=0;" edge="1" parent="1" source="B7dfgYhSf5KNwueZFovN-44" target="B7dfgYhSf5KNwueZFovN-47">
          <mxGeometry relative="1" as="geometry" />
        </mxCell>
        <mxCell id="B7dfgYhSf5KNwueZFovN-43" style="edgeStyle=orthogonalEdgeStyle;rounded=0;orthogonalLoop=1;jettySize=auto;html=1;exitX=0;exitY=0.75;exitDx=0;exitDy=0;entryX=1;entryY=0.75;entryDx=0;entryDy=0;" edge="1" parent="1" source="B7dfgYhSf5KNwueZFovN-44" target="B7dfgYhSf5KNwueZFovN-41">
          <mxGeometry relative="1" as="geometry" />
        </mxCell>
        <mxCell id="B7dfgYhSf5KNwueZFovN-44" value="" style="rounded=0;whiteSpace=wrap;html=1;" vertex="1" parent="1">
          <mxGeometry x="520" y="580" width="20" height="20" as="geometry" />
        </mxCell>
        <mxCell id="B7dfgYhSf5KNwueZFovN-45" style="edgeStyle=orthogonalEdgeStyle;rounded=0;orthogonalLoop=1;jettySize=auto;html=1;entryX=0;entryY=0.5;entryDx=0;entryDy=0;" edge="1" parent="1" source="B7dfgYhSf5KNwueZFovN-47" target="B7dfgYhSf5KNwueZFovN-49">
          <mxGeometry relative="1" as="geometry" />
        </mxCell>
        <mxCell id="B7dfgYhSf5KNwueZFovN-46" style="edgeStyle=orthogonalEdgeStyle;rounded=0;orthogonalLoop=1;jettySize=auto;html=1;exitX=0;exitY=0.75;exitDx=0;exitDy=0;entryX=1;entryY=0.75;entryDx=0;entryDy=0;" edge="1" parent="1" source="B7dfgYhSf5KNwueZFovN-47" target="B7dfgYhSf5KNwueZFovN-44">
          <mxGeometry relative="1" as="geometry" />
        </mxCell>
        <mxCell id="B7dfgYhSf5KNwueZFovN-47" value="" style="rounded=0;whiteSpace=wrap;html=1;" vertex="1" parent="1">
          <mxGeometry x="560" y="580" width="20" height="20" as="geometry" />
        </mxCell>
        <mxCell id="B7dfgYhSf5KNwueZFovN-48" style="edgeStyle=orthogonalEdgeStyle;rounded=0;orthogonalLoop=1;jettySize=auto;html=1;exitX=0;exitY=0.75;exitDx=0;exitDy=0;entryX=1;entryY=0.75;entryDx=0;entryDy=0;" edge="1" parent="1" source="B7dfgYhSf5KNwueZFovN-49" target="B7dfgYhSf5KNwueZFovN-47">
          <mxGeometry relative="1" as="geometry" />
        </mxCell>
        <mxCell id="B7dfgYhSf5KNwueZFovN-49" value="" style="rounded=0;whiteSpace=wrap;html=1;" vertex="1" parent="1">
          <mxGeometry x="640" y="580" width="20" height="20" as="geometry" />
        </mxCell>
        <mxCell id="B7dfgYhSf5KNwueZFovN-50" value="generate_conflict" style="rounded=0;whiteSpace=wrap;html=1;" vertex="1" parent="1">
          <mxGeometry x="285" y="620" width="100" height="40" as="geometry" />
        </mxCell>
        <mxCell id="B7dfgYhSf5KNwueZFovN-51" value="build a conflict set for victim" style="text;html=1;strokeColor=none;fillColor=none;align=center;verticalAlign=middle;whiteSpace=wrap;rounded=0;" vertex="1" parent="1">
          <mxGeometry x="410" y="630" width="180" height="20" as="geometry" />
        </mxCell>
        <mxCell id="B7dfgYhSf5KNwueZFovN-52" value="" style="shape=image;html=1;verticalAlign=top;verticalLabelPosition=bottom;labelBackgroundColor=#ffffff;imageAspect=0;aspect=fixed;image=https://cdn2.iconfinder.com/data/icons/font-awesome/1792/question-128.png" vertex="1" parent="1">
          <mxGeometry x="426" y="110" width="128" height="128" as="geometry" />
        </mxCell>
        <mxCell id="B7dfgYhSf5KNwueZFovN-53" value="没有看到这两个指针在什么地方用了" style="text;html=1;strokeColor=none;fillColor=none;align=center;verticalAlign=middle;whiteSpace=wrap;rounded=0;" vertex="1" parent="1">
          <mxGeometry x="580" y="160" width="210" height="20" as="geometry" />
        </mxCell>
        <mxCell id="B7dfgYhSf5KNwueZFovN-54" value="reduce algorithm" style="rounded=0;whiteSpace=wrap;html=1;" vertex="1" parent="1">
          <mxGeometry x="290" y="750" width="100" height="40" as="geometry" />
        </mxCell>
        <mxCell id="B7dfgYhSf5KNwueZFovN-55" value="group test" style="rounded=0;whiteSpace=wrap;html=1;" vertex="1" parent="1">
          <mxGeometry x="430" y="750" width="100" height="40" as="geometry" />
        </mxCell>
        <mxCell id="B7dfgYhSf5KNwueZFovN-56" value="naive" style="rounded=0;whiteSpace=wrap;html=1;" vertex="1" parent="1">
          <mxGeometry x="430" y="690" width="100" height="40" as="geometry" />
        </mxCell>
        <mxCell id="B7dfgYhSf5KNwueZFovN-57" value="binary" style="rounded=0;whiteSpace=wrap;html=1;" vertex="1" parent="1">
          <mxGeometry x="430" y="810" width="100" height="40" as="geometry" />
        </mxCell>
        <mxCell id="B7dfgYhSf5KNwueZFovN-58" value="" style="shape=curlyBracket;whiteSpace=wrap;html=1;rounded=1;" vertex="1" parent="1">
          <mxGeometry x="400" y="690" width="20" height="160" as="geometry" />
        </mxCell>
        <mxCell id="B7dfgYhSf5KNwueZFovN-59" value="" style="shape=curlyBracket;whiteSpace=wrap;html=1;rounded=1;" vertex="1" parent="1">
          <mxGeometry x="540" y="660" width="20" height="220" as="geometry" />
        </mxCell>
        <mxCell id="B7dfgYhSf5KNwueZFovN-60" value="chunks" style="text;html=1;strokeColor=none;fillColor=none;align=center;verticalAlign=middle;whiteSpace=wrap;rounded=0;" vertex="1" parent="1">
          <mxGeometry x="580" y="660" width="60" height="20" as="geometry" />
        </mxCell>
        <mxCell id="B7dfgYhSf5KNwueZFovN-61" value="ichunk" style="text;html=1;strokeColor=none;fillColor=none;align=center;verticalAlign=middle;whiteSpace=wrap;rounded=0;" vertex="1" parent="1">
          <mxGeometry x="580" y="680" width="60" height="20" as="geometry" />
        </mxCell>
        <mxCell id="B7dfgYhSf5KNwueZFovN-62" value="back" style="text;html=1;strokeColor=none;fillColor=none;align=center;verticalAlign=middle;whiteSpace=wrap;rounded=0;" vertex="1" parent="1">
          <mxGeometry x="580" y="700" width="60" height="20" as="geometry" />
        </mxCell>
      </root>
    </mxGraphModel>
  </diagram>
</mxfile>
